<?xml version="1.0" encoding="UTF-8"?>
<svg id="_レイヤー_1" data-name="レイヤー 1" xmlns="http://www.w3.org/2000/svg" viewBox="0 0 97.46 102.05">
  <defs>
    <style>
      .cls-1 {
        fill: #216a9c;
      }

      .cls-2 {
        fill: #be4493;
      }
    </style>
  </defs>
  <g>
    <polygon class="cls-2" points="30.8 17.67 39.43 32.6 58.15 32.6 66.77 17.67 30.8 17.67"/>
    <polygon class="cls-2" points="66.99 84.84 58.2 69.62 39.48 69.62 30.69 84.84 66.99 84.84"/>
    <polygon class="cls-2" points="37.62 68.4 28.26 52.19 10.57 52.19 28.78 83.72 37.62 68.4"/>
    <polygon class="cls-2" points="28.86 18.65 10.74 50.04 28.26 50.04 37.62 33.82 28.86 18.65"/>
  </g>
  <g>
    <polygon class="cls-1" points="66.77 15.24 57.97 0 39.25 0 30.44 15.24 66.77 15.24"/>
    <polygon class="cls-1" points="97.27 33.65 87.9 17.43 70.59 17.43 88.6 48.64 97.27 33.65"/>
    <polygon class="cls-1" points="59.82 33.65 69.19 49.86 86.71 49.86 68.59 18.47 59.82 33.65"/>
    <polygon class="cls-1" points="68.86 83.71 87.05 52.19 69.38 52.19 60.02 68.4 68.86 83.71"/>
    <polygon class="cls-1" points="88.87 53.53 70.93 84.62 88.1 84.62 97.46 68.4 88.87 53.53"/>
    <polygon class="cls-1" points="30.84 87.09 39.48 102.05 58.2 102.05 66.84 87.09 30.84 87.09"/>
    <polygon class="cls-1" points=".18 68.4 9.54 84.62 26.7 84.62 8.76 53.55 .18 68.4"/>
    <polygon class="cls-1" points="8.66 48.64 26.68 17.43 9.36 17.43 0 33.65 8.66 48.64"/>
  </g>
</svg>